<?xml version="1.0" encoding="UTF-8"?><svg id="b" xmlns="http://www.w3.org/2000/svg" viewBox="0 0 515.2 374.1"><defs><style>.d{stroke:#482966;stroke-miterlimit:10;stroke-width:.5px;}.d,.e{fill:#fff;}.f{fill:#fafafa;}</style></defs><path class="f" d="M75.7,278.1v-9.7h24v2.8c0,19.4-9.2,30.9-25.2,30.9s-27-11.7-27-29.3,9.4-29.3,27.3-29.3,13.9,2.3,18.4,6.8l-5,9.5c-4-3.1-7.4-4.5-12.7-4.5-10.1,0-15.1,7.3-15.1,17.6s4.7,17.6,14,17.6,11.6-4,12.5-12.3h-11.3Z"/><path class="f" d="M113.9,244.4h37.5v11.7h-25.1v10.6h23.4v11.4h-23.4v11.4h26v11.7h-38.4v-56.8Z"/><path class="f" d="M167.1,244.4h8.5l24.6,18.3v-18.3h12.4v56.8h-12.4v-23.2l-20.8-15.3v38.5h-12.4v-56.8Z"/><path class="f" d="M230,244.4h12.4v56.8h-12.4v-56.8Z"/><path class="f" d="M259.5,276v-31.6h12.4v31.6c0,9.4,3.4,14.3,10.2,14.3s10.2-4.9,10.2-14.3v-31.6h12.4v31.6c0,16.6-8.1,26.1-22.6,26.1s-22.6-9.4-22.6-26.1Z"/><path class="f" d="M317.6,295l5.5-9.9c4.9,4.8,11.4,5.5,15.6,5.5s7.8-2.3,7.8-5.4-5.2-5.5-9.1-6.8c-8.5-2.6-18.3-6.2-18.3-18s7.2-17,19.6-17,12.8,1.5,18.5,5.5l-4.4,9.7c-5.2-2.8-10-3.8-14.1-3.8s-7.1,1.8-7.1,4.5,4.5,5.1,8.7,6.4c9.2,2.9,18.7,7,18.7,18.3s-7.1,17.9-20.3,17.9-15-1.3-21.1-7.1Z"/><path class="f" d="M373.9,244.4h37.5v11.7h-25.1v10.6h23.4v11.4h-23.4v11.4h26v11.7h-38.4v-56.8Z"/><path class="f" d="M424.4,295l5.5-9.9c4.9,4.8,11.4,5.5,15.6,5.5s7.8-2.3,7.8-5.4-5.2-5.5-9.1-6.8c-8.5-2.6-18.3-6.2-18.3-18s7.2-17,19.6-17,12.8,1.5,18.5,5.5l-4.4,9.7c-5.2-2.8-10-3.8-14.1-3.8s-7.1,1.8-7.1,4.5,4.5,5.1,8.7,6.4c9.2,2.9,18.7,7,18.7,18.3s-7.1,17.9-20.3,17.9-15-1.3-21.1-7.1Z"/><path class="e" d="M148.6,206.3v-24.1h5.9v24.1c0,7.3,2.7,12.1,8.8,12.1s9.2-4.9,9.2-12.1v-24.1h5.9v24.1c0,7.3,2.9,12.1,9.2,12.1s8.8-4.9,8.8-12.1v-24.1h5.9v24.1c0,10.8-4.5,17.9-14.6,17.9s-10.1-2.8-12.3-7.6c-2.4,4.7-6.4,7.6-12.4,7.6-10,0-14.5-7.1-14.5-17.9Z"/><path class="e" d="M212,208c0-9.4,5.6-16.1,15.3-16.1s14.7,6.6,14.7,16.1,0,1.6-.2,2.5h-23.7c.5,5.4,4.5,8.4,10.3,8.4s6.8-.8,10.1-2.7l2.2,4.7c-3.5,2.2-7.5,3.3-12.7,3.3-10.5,0-16.1-6.6-16.1-16.1ZM236.2,205.8c-.3-5.4-3.2-8.7-8.8-8.7s-9,3.4-9,8.7h17.8Z"/><path class="e" d="M267.2,200.8c0-12,6.5-19.3,17.7-19.3s17.7,7.3,17.7,19.3v22.7h-5.9v-11.6h-23.6v11.6h-5.9v-22.7ZM296.7,206.1v-5.3c0-8.5-4.3-13.6-11.8-13.6s-11.8,5.1-11.8,13.6v5.3h23.6Z"/><path class="e" d="M314,192.6h4.9l.4,5.7c2.3-4.8,5.8-6.4,9.9-6.4s1.9.2,2.7.4v6c-1.6-.4-3.1-.5-3.8-.5-5.4,0-8.5,4.1-8.5,10.3v15.4h-5.7v-30.9Z"/><path class="e" d="M337.5,208c0-9.4,5.6-16.1,15.3-16.1s14.7,6.6,14.7,16.1,0,1.6-.2,2.5h-23.7c.5,5.4,4.5,8.4,10.3,8.4s6.8-.8,10.1-2.7l2.2,4.7c-3.5,2.2-7.5,3.3-12.7,3.3-10.5,0-16.1-6.6-16.1-16.1ZM361.7,205.8c-.3-5.4-3.2-8.7-8.8-8.7s-9,3.4-9,8.7h17.8Z"/><g id="c"><path class="d" d="M253.9,140.5c-.5,1.1-.3,3,.5,4.4l.5.9.2-.7c0-.4.1-1.8.1-3,0-2.6-.5-3.1-1.2-1.6Z"/><path class="d" d="M256.1,139c-.2,0-.2,2.3-.1,6.6,0,3.8.3,6.6.4,6.5.1,0,.2-3.1.1-6.6,0-4.2-.2-6.5-.4-6.5Z"/><path class="d" d="M245.4,78.1c.2-.2,1-.7,1.8-1.1,1.2-.6,1.8-.6,3.3-.5,1,0,2.1.3,2.4.4.7.3.9.1.9-.9v-.8s-2.4,0-2.4,0c-1.8,0-2.7,0-3.7-.5-1.2-.5-3.2-2.3-4-3.6-.3-.5-.4-.4-1.6.9-.7.8-1.3,1.6-1.3,1.8,0,.8,1.2,2.6,2.4,3.6,1.3,1.1,1.8,1.2,2.3.6Z"/><path class="d" d="M253,137.1c-.6-.1-.9,0-1.5.7-.6.8-.7,1.1-.5,2.8.1,1.3.4,2.2.8,2.9.4.6.7,1,.8,1,0,0,0-.6,0-1.4-.3-1.9,0-3.2.9-4.2.9-1,.7-1.6-.4-1.8Z"/><path class="d" d="M257.6,142.9c0,1.8,0,2.5.3,2.5.2,0,.5-.3.6-.6.4-.8.3-3.6-.1-4-.7-.6-.8-.3-.8,2.1Z"/><path class="d" d="M256.8,132c0-2.4-.3-3.4-1-3.4-.4,0-.2,3.9.2,4.3.6.6.8.4.8-.9Z"/><path class="d" d="M257.6,121.6c-2.1-1.3-4.2-3-4.7-4-.7-1.2-.6-3.2.2-4.4.8-1.2.8-1.2-1.8-2.8-1.8-1.1-1.9-1-3.1,1.2-1.1,2.1-1.2,4.3-.3,6.9.6,1.7,1,2.3,2.5,3.8,1.1,1.1,2.5,2.1,3.6,2.7,3.6,1.7,5.4,4,4.4,5.6-.3.4-.4,1.3-.4,2.1,0,2.4,1.1,2.7,3,1,1.5-1.4,2.2-3,2.2-4.9,0-2.8-1.8-5.1-5.5-7.3Z"/><path class="d" d="M258.2,135.2c-.3-.2-1.1-.8-1.8-1.3-.7-.5-1.6-1.4-2-2.1-.7-1-.8-1.4-.7-2.9v-1.7c0,0-1.1-.7-1.1-.7-.7-.4-1.4-.7-1.7-.7-1.2,0-1.8,3.8-.9,5.8.9,2,3.6,4.3,6.4,5.3,1.5.6,3.2,2.3,3.4,3.6.2,1,.1,2.5-.3,3.9-.2.7-.1.7.3.3.3-.2.7-.9,1.1-1.4,1.8-3,1-5.3-2.7-8.1Z"/><path class="d" d="M255,130.3c0-.3,0-.7,0-1-.1-.5-.1-.5-.3,0-.1.3-.1.7,0,1,.2.5.2.5.3,0Z"/><path class="d" d="M253.6,83.9c.2-.9.2-3.5,0-3.5-.1,0-.6.3-1.1.7-.5.4-1.3.9-1.9,1.1l-1,.4,1.7.9c2.1,1.1,2.1,1,2.2.4Z"/><path class="d" d="M256.5,62.3c-1.1,0-2-.1-2.1,0,0,0,0,5.6,0,12.3,0,9.5.2,12.2.5,12.4.5.3,2,.8,2.5.9.2,0,.4-.1.4-.3.1-1.1.2-3.1.3-9.9.1-4.1.2-7.7.3-7.9,0-.2,0-1.9,0-3.8v-3.4s-2-.2-2-.2Z"/><path class="d" d="M249.7,84.2c1.8,1.8,4.7,2.9,4.1,1.6-.2-.5-3.7-2.5-4.4-2.5-.5,0-.5.1.3.9Z"/><path class="d" d="M260.8,84.3c-1.5.7-1.9,1.3-1.5,2.2.2.5.3.5,1.7-.2,1.3-.6,3.3-2.4,3.3-2.9,0-.2-.2-.3-.4-.3-.2,0-.4-.1-.4-.3,0-.2-.4-.4-.9-.6-.6-.1-1.5-.6-2-1.1l-1-.9v1.8c0,1,0,1.9,0,2,0,0,.7,0,1.5-.3,1.8-.6,1.7-.2-.2.7Z"/><path class="d" d="M236.2,60.4c.7-1.2,1-.9,1.1.9,0,3.4,3.2,6.3,6.7,6.2.5,0,.9.1.9.3,0,.2-.1.3-.3.3-.5,0,0,2.2.7,3.2.9,1.2,2.7,2.2,4.2,2.5,1.1.2,1.6.2,3.3-.2.8-.2.9-.9.9-3.8v-2.4s-1.8.2-1.8.2l-1.7.2-1.3-1.3c-1.7-1.6-1.7-2.4-.4-3.6,1.3-1.1,1.9-2.4,1.8-4.1,0-1.2-.2-1.6-1.1-2.6-1.5-1.6-3.4-2.2-6.1-2.1-1.8,0-2.4.3-4.5,1.3-1.3.7-3.1,1.8-4,2.4s-2.7,1.9-4,2.8c-5.2,3.6-7.9,5.2-13,7.6l-1.1.5.8.4c1.5.8,3.8.8,5.7,0,3.4-1.3,12.3-7.2,13.2-8.6Z"/><path class="d" d="M239.4,68.1l-.9-.9c-.5-.5-1.1-.9-1.2-.9s-.9.6-1.7,1.4c-1.9,1.8-4,3.4-5.6,4.2-1.5.8-1.5,1.1-.3,1.3,1.4.1,2.5,0,4-.9.7-.4,2.3-1.5,3.5-2.4l2.2-1.7Z"/><path class="d" d="M241.4,68.3c-1.1-.2-1.1-.1-3,1.9-1.1,1.1-2.3,2.3-2.7,2.6-.9.6-1,.9-.3,1.1.7.2,2.1-.1,3.3-.7.6-.3,1.6-1.1,2.4-1.8,2.2-2,2.3-2.7.3-3Z"/><path class="d" d="M236.8,65.5c0-.4-1-2.8-1.2-2.8-.1,0-1.9,1.3-3.9,2.9-3.2,2.5-7.1,4.9-8.1,4.9-.7,0-.2.6.6.8,1.7.4,2.9.3,4.7-.6,1.5-.8,7.9-4.9,7.9-5.2Z"/><path class="d" d="M254.3,60.2c1.2,1.1,1.3,1.1,2.7,1,1.2-.1,1.6-.3,2.2-1.1,2-2.5.4-5.8-2.8-5.7-1.2,0-1.6.2-2.4,1-.8.9-1,1.2-.9,2.4,0,1.2.1,1.5,1.3,2.5ZM256.9,59.3c.9-.3,1.6-2.1,1.2-2.8-.7-1.1,0-1.6.9-.6.7.7.6,2.2-.1,3.1-.7.8-2,1.3-2.3.8-.1-.2,0-.4.4-.5Z"/><path class="d" d="M270.1,71.7c-.1,0-.8.4-1.5,1.1-1.9,1.7-3.1,2.3-5.4,2.3-1.1,0-2.3,0-2.7,0-.7-.1-.7,0-.7.9,0,1.1,0,1.1,2.3.5,1.8-.5,4.3.2,5.9,1.5.6.5,1.3.9,1.5.9.2,0,1-.6,1.6-1.3.7-.7,1.4-1.7,1.7-2.1.5-.7.4-.8-1-2.2-.8-.8-1.5-1.5-1.7-1.6Z"/><path class="d" d="M283.5,72.4c-2.1-1.2-3.5-2.3-4.6-3.3-2.4-2.3-2.3-2.3-3.3-1.7-.5.3-.9.8-.9,1,0,.7,3.4,3.6,5.1,4.4,1.6.7,4.6.9,4.6.4,0-.2-.4-.5-.8-.8Z"/><path class="d" d="M277,73c-.6-.3-1.6-1.5-2.4-2.6-1.2-1.8-1.5-2-2.3-2-2,0-2.1,1.3-.2,3.2,1.4,1.5,2.6,2.2,4,2.5.5.1.9.2.9.2,0,0,.3,0,.5-.2.7-.3.5-.6-.6-1.3Z"/><path class="d" d="M259.8,101.8c.7-1.2.8-2.3,0-3.3-.3-.5-.7-.9-.9-.8-.4.2-.3,4.8,0,4.8.2,0,.5-.3.7-.7Z"/><path class="d" d="M263.2,76.9c-1.9,0-3.4.6-3.6,1.4,0,.3.3.9.8,1.4.7.8,1.1.9,2.6,1,1.5,0,1.8,0,2.6-.7.5-.4,1-.8,1.1-.8.2,0,0,2.3-.4,3-1,2.1-3.6,4.3-6,5.2-1.5.5-1.3,1.1.7,2.1,1.8.9,2.1.9,3,.5,2.7-1.5,5-4.9,5.2-7.7,0-1.6,0-1.8-.8-2.9-1.4-1.8-3-2.5-5.1-2.5ZM264,78.2c-.2.1-.5.2-.5.2,0,0-.3,0-.6-.2-.8-.2-.6-.7.3-.7,1,0,1.4.4.7.7Z"/><path class="d" d="M319.4,70.5c0-19.1-15.5-34.6-34.6-34.6s-21.8,5.7-28.1,14.4c-6.3-8.3-16.3-13.7-27.6-13.7-19.1,0-34.6,15.5-34.6,34.6-3.6,23.6,60.8,99.5,60.8,99.5,0,0,47.8-55.5,60.9-85.8.4-.8.7-1.7,1.1-2.6,1.8-4.8,2.7-8.9,2.1-11.8ZM295.6,71.7c-.6.3-1.6.6-2.2.6-.6,0-1.9.4-2.8.8-1.3.6-1.9.8-2.9.6-.9-.1-1.5,0-1.9.3-.7.5-2.5.9-4.8,1-4.8.4-6.4.5-6.6.7-.2.1-.5.6-.7,1.2-.4,1.1-1.6,2.4-2.8,3.2-.7.5-.8.7-.8,2.4,0,2.6-.9,4.6-3.2,7.1l-1.9,2,1.2,1.4c1.8,2.1,2.4,3.5,2.5,6,0,3.9-.8,6.1-3.5,8.5l-1.3,1.2.9.9c2.1,2.2,2.3,2.7,2.4,5.8,0,3.6-.4,4.6-2.9,6.9-1.6,1.4-2.1,2.3-1.4,2.3.2,0,.7.7,1.1,1.6,1.3,2.9.8,5.9-1.5,8.6-.6.7-1.1,1.4-1.1,1.5,0,0,.3.6.7,1.2.6.9.7,1.4.8,2.9,0,3.3-1.9,5.9-4.5,6h-.8s-.1,3.3-.1,3.3c-.1,3-.3,3.7-1,3.7,0,0-.4-.2-.6-.5-.3-.3-.4-1.3-.5-3.2v-2.7c0,0-1.2-.5-1.2-.5-2.6-1.1-3.7-2.8-3.7-6,0-1.6,0-2.2.7-3.1q.8-1.2-.6-2.6c-1.9-2-2.4-7-.9-8.7.3-.3.6-.8.6-.9,0-.2-.6-1.1-1.4-2-2.3-2.9-2.6-3.6-2.7-6.7,0-2.5,0-2.9.7-4.2.4-.8,1.2-1.9,1.6-2.4l.8-.9-1.1-1.2c-.6-.7-1.4-2-1.9-2.8-.7-1.4-.8-2-.9-4.9,0-2.9,0-3.5.6-4.8.4-.8,1-1.9,1.5-2.3.8-.8,1.1-1.6.6-1.6-.1,0-1-.7-1.9-1.5-2.5-2.3-3.8-6.5-2.9-8.8l.4-1.1-1.1-.8c-1.1-.8-1.7-1.7-2.6-3.8l-.4-1.1-1.5.5c-1.4.5-1.5.5-3,0-1-.4-2.1-.6-3.2-.5-1.1,0-2-.1-3-.6-.8-.4-2-.7-2.7-.7-.9,0-1.8-.4-2.9-1-1.2-.7-2-1-2.9-1-1.4,0-3.7-1-4.9-2.3l-.8-.8,1.6-.4c1.9-.5,7.1-3.2,10.6-5.6,1.4-1,4.4-3,6.6-4.5,4.9-3.4,5.3-3.6,7.5-4,5.2-1.1,9.4,1.2,10.1,5.7.3,1.7-.2,3.2-1.4,4.7-.5.6-.9,1.2-.9,1.4,0,.1.4.6.9,1,.8.6,1.1.7,1.9.6,1.5-.3,1.8-.7,1.7-3.1,0-1.6-.2-2.5-.6-3.4-1.3-2.5-.6-5.2,1.6-6.4,3-1.6,6.2-.1,6.7,3.1.1.9,0,1.6-.6,2.9-.6,1.5-.7,2-.6,4.2v2.5c.1,0,1.5,0,1.5,0,1.3,0,3.1-.6,3.1-1.1,0-.1-.3-.6-.7-1.1-1.7-2.2-1.9-5.7-.5-8,1.8-2.8,4.3-3.7,8-3,3.4.6,4.8,1.5,13.1,7.5,2,1.4,5.3,3.6,7.4,4.7,3.6,2,3.9,2.1,5.3,1.9,1.4-.1,1.5,0,1.5.5,0,.8-1.8,3-3.1,3.7Z"/><path class="d" d="M295.8,68.3c-2.8-.8-8.3-4-14.3-8.4-7.8-5.6-10.5-6.7-14.8-5.7-.9.2-2.7,1.9-3.1,3-.8,2-.2,4.4,1.5,6.1l1.1,1.1-.6,1c-1.3,2-3,2.6-5.2,2l-.8-.2v2.9c0,0,.1,2.9.1,2.9l.9.3c1.3.4,2.6.3,4.1,0,1.7-.5,3.4-2,4-3.7.4-1.1.4-1.4,0-1.7-.2-.2-.3-.4-.3-.4,0,0,1.1,0,2.3-.1,2,0,2.3-.2,3.5-1,1.9-1.4,2.9-3.9,2.4-5.9-.2-1,.7-.4,1.2.8.5,1.2,2.8,3.2,7.6,6.5,3.9,2.7,8.6,3.7,10.6,2.4,1.1-.7,1-1.2-.3-1.6Z"/><path class="d" d="M289.2,71.3c-.6,0-6.4-3.9-8.5-5.7-2.2-1.9-2.8-2.2-3.1-1.4-.4,1.2-.1,1.9,1.4,3.4,3.5,3.4,8,5.5,10,4.7.5-.2.6-1,.2-1Z"/><path class="d" d="M254.6,116.7c.2-.7.2-1.2,0-1.4-.4-.4-.7.8-.4,1.7.2.8.2.7.5-.3Z"/><path class="d" d="M258.6,118.2c.2-.2.3-.8.4-1.3,0-1.6-.6-1.4-.6.2,0,1.1,0,1.4.3,1.1Z"/><path class="d" d="M256.9,105.3c-.6-.3-1.8-1-2.9-1.7-1.6-1-1.9-1.4-2.4-2.7-1-2.5-.8-4.2.5-5.8.8-.9.5-1.3-1.4-2.3l-1.7-.8-1,1.2c-1.5,1.8-2,3.3-2,6,0,2,.2,2.6,1,4.1,1.1,2.1,3.1,4.1,5.5,5.5,3.7,2,6.6,4.1,7.2,4.9.3.5.6,1.4.6,2,0,1.2-.7,3-1.5,3.7-.8.7-.5,1.4.8,2.3,1.5,1,1.7,1,2.8.4,2-1.3,3.2-3.6,3.3-6.4,0-1.9,0-2.3-.8-3.9-.5-1-1.2-2.1-1.6-2.4-1-.8-5.2-3.6-6.4-4.2Z"/><path class="d" d="M254.2,99.6c0-2.2-.1-2.7-.5-2.7-.5,0-.9.7-1.1,2-.1.7,0,1.3.4,2.2.9,2,1.2,1.6,1.2-1.5Z"/><path class="d" d="M262.9,91.4c-.1,0-1-.5-2.1-1.1-1.1-.6-3.4-1.5-5.3-2.1-3.9-1.2-6.5-2.5-7.8-4.1-.7-.9-.9-1.4-1.1-2.8-.2-1.8,0-2.1.9-1.2,1.2,1.3,4.1.8,5.3-.8.6-.8.6-1.5-.2-1.8-2.1-.8-4.6-.5-6.5.9-2.4,1.7-3,4.6-1.6,7.2,1.3,2.5,3.2,3.8,9.5,6.8,5.3,2.5,6.3,3.1,7.1,4.4,1.1,1.8.5,4.6-1.5,6.5-1.1,1-1.2,1.5-.5,2.1.7.6,2.2,1.3,2.7,1.3.2,0,1-.5,1.7-1,2.4-1.8,3.5-4.2,3.5-7.4,0-1.3-.2-2.2-.6-3-.6-1.1-3.1-3.9-3.5-3.9ZM249.7,77.8c.5,0,.9.1.9.3,0,.2-.2.3-.4.3-.2,0-.6,0-.8.2-.2,0-.5,0-.6,0-.4-.4,0-.7,1-.7Z"/><path class="d" d="M256,103.8c1.3.7,1.4.6,1.5-3.4.1-3.8.1-3.8-.6-4.3-.9-.7-1.7-.9-2-.6-.1.1,0,2,0,4.1.2,3.7.3,3.8,1,4.2Z"/><path class="d" d="M256.1,119.6c.4.3.7.5.9.4.1-.1.2-1.1.2-2.1,0-3.9,0-4-1-4.5l-.9-.4v3c.1,2.7.2,3.1.8,3.6Z"/></g></svg>